<svg width="823px" height="156px"
 viewBox="0.00 0.00 822.69 156.00" xmlns="http://www.w3.org/2000/svg" xmlns:xlink="http://www.w3.org/1999/xlink">
<g id="graph0" class="graph" transform="scale(1.0 1.0) rotate(0.0) translate(4.0 152.0)">
<title>graph</title>
<polygon fill="white" stroke="transparent" points="-4,4 -4,-152 818.69,-152 818.69,4 -4,4"/>
<!-- L* -->
<g id="node1" class="node">
<title>L*</title>
<ellipse fill="none" stroke="black" cx="641.16" cy="-45.5" rx="27" ry="18"/>
<text text-anchor="start" x="637.66" y="-41.3" font-family="Times,serif" font-size="14.00">*</text>
</g>
<!-- data &#45;8.0000 -->
<g id="node2" class="node">
<title>data &#45;8.0000</title>
<polygon fill="none" stroke="black" points="704.16,-27.5 704.16,-63.5 814.69,-63.5 814.69,-27.5 704.16,-27.5"/>
<text text-anchor="middle" x="716.43" y="-41.4" font-family="Times,serif" font-size="14.00">L</text>
<polyline fill="none" stroke="black" points="728.71,-27.7 728.71,-63.5 "/>
<text text-anchor="middle" x="771.7" y="-41.4" font-family="Times,serif" font-size="14.00">data &#45;8.0000</text>
</g>
<!-- L*&#45;&gt;data &#45;8.0000 -->
<g id="edge1" class="edge">
<title>L*&#45;&gt;data &#45;8.0000</title>
<path fill="none" stroke="black" d="M668.25,-45.5C675.93,-45.5 684.71,-45.5 693.69,-45.5"/>
<polygon fill="black" stroke="black" points="693.88,-49 703.88,-45.5 693.88,-42 693.88,-49"/>
</g>
<!-- d+ -->
<g id="node3" class="node">
<title>d+</title>
<ellipse fill="none" stroke="black" cx="408.51" cy="-73.5" rx="27" ry="18"/>
<text text-anchor="start" x="404.57" y="-69.3" font-family="Times,serif" font-size="14.00">+</text>
</g>
<!-- data 4.0000 -->
<g id="node4" class="node">
<title>data 4.0000</title>
<polygon fill="none" stroke="black" points="472.68,-55.5 472.68,-91.5 577,-91.5 577,-55.5 472.68,-55.5"/>
<text text-anchor="middle" x="484.18" y="-69.4" font-family="Times,serif" font-size="14.00">d</text>
<polyline fill="none" stroke="black" points="495.68,-55.7 495.68,-91.5 "/>
<text text-anchor="middle" x="536.34" y="-69.4" font-family="Times,serif" font-size="14.00">data 4.0000</text>
</g>
<!-- d+&#45;&gt;data 4.0000 -->
<g id="edge2" class="edge">
<title>d+&#45;&gt;data 4.0000</title>
<path fill="none" stroke="black" d="M435.74,-73.5C443.78,-73.5 452.98,-73.5 462.34,-73.5"/>
<polygon fill="black" stroke="black" points="462.51,-77 472.51,-73.5 462.51,-70 462.51,-77"/>
</g>
<!-- data 4.0000&#45;&gt;L* -->
<g id="edge3" class="edge">
<title>data 4.0000&#45;&gt;L*</title>
<path fill="none" stroke="black" d="M577.31,-60.89C586.85,-58.56 596.61,-56.17 605.5,-53.99"/>
<polygon fill="black" stroke="black" points="606.59,-57.32 615.47,-51.55 604.93,-50.52 606.59,-57.32"/>
</g>
<!-- e* -->
<g id="node5" class="node">
<title>e*</title>
<ellipse fill="none" stroke="black" cx="171.98" cy="-101.5" rx="27" ry="18"/>
<text text-anchor="start" x="168.48" y="-97.3" font-family="Times,serif" font-size="14.00">*</text>
</g>
<!-- data &#45;6.0000 -->
<g id="node6" class="node">
<title>data &#45;6.0000</title>
<polygon fill="none" stroke="black" points="236.15,-83.5 236.15,-119.5 344.35,-119.5 344.35,-83.5 236.15,-83.5"/>
<text text-anchor="middle" x="247.26" y="-97.4" font-family="Times,serif" font-size="14.00">e</text>
<polyline fill="none" stroke="black" points="258.36,-83.7 258.36,-119.5 "/>
<text text-anchor="middle" x="301.35" y="-97.4" font-family="Times,serif" font-size="14.00">data &#45;6.0000</text>
</g>
<!-- e*&#45;&gt;data &#45;6.0000 -->
<g id="edge4" class="edge">
<title>e*&#45;&gt;data &#45;6.0000</title>
<path fill="none" stroke="black" d="M199.07,-101.5C207.14,-101.5 216.4,-101.5 225.84,-101.5"/>
<polygon fill="black" stroke="black" points="226.12,-105 236.12,-101.5 226.12,-98 226.12,-105"/>
</g>
<!-- data &#45;6.0000&#45;&gt;d+ -->
<g id="edge5" class="edge">
<title>data &#45;6.0000&#45;&gt;d+</title>
<path fill="none" stroke="black" d="M344.62,-88.65C354.23,-86.33 364.01,-83.98 372.91,-81.83"/>
<polygon fill="black" stroke="black" points="373.99,-85.17 382.89,-79.43 372.35,-78.37 373.99,-85.17"/>
</g>
<!-- data 2.0000 -->
<g id="node7" class="node">
<title>data 2.0000</title>
<polygon fill="none" stroke="black" points="2.72,-111.5 2.72,-147.5 106.26,-147.5 106.26,-111.5 2.72,-111.5"/>
<text text-anchor="middle" x="13.83" y="-125.4" font-family="Times,serif" font-size="14.00">a</text>
<polyline fill="none" stroke="black" points="24.94,-111.7 24.94,-147.5 "/>
<text text-anchor="middle" x="65.6" y="-125.4" font-family="Times,serif" font-size="14.00">data 2.0000</text>
</g>
<!-- data 2.0000&#45;&gt;e* -->
<g id="edge6" class="edge">
<title>data 2.0000&#45;&gt;e*</title>
<path fill="none" stroke="black" d="M106.48,-117.14C116.69,-114.66 127.18,-112.12 136.66,-109.82"/>
<polygon fill="black" stroke="black" points="137.59,-113.2 146.48,-107.44 135.94,-106.39 137.59,-113.2"/>
</g>
<!-- data &#45;3.0000 -->
<g id="node8" class="node">
<title>data &#45;3.0000</title>
<polygon fill="none" stroke="black" points="0,-56.5 0,-92.5 108.98,-92.5 108.98,-56.5 0,-56.5"/>
<text text-anchor="middle" x="11.5" y="-70.4" font-family="Times,serif" font-size="14.00">b</text>
<polyline fill="none" stroke="black" points="23,-56.7 23,-92.5 "/>
<text text-anchor="middle" x="65.99" y="-70.4" font-family="Times,serif" font-size="14.00">data &#45;3.0000</text>
</g>
<!-- data &#45;3.0000&#45;&gt;e* -->
<g id="edge7" class="edge">
<title>data &#45;3.0000&#45;&gt;e*</title>
<path fill="none" stroke="black" d="M109.18,-87.05C118.39,-89.21 127.74,-91.39 136.29,-93.39"/>
<polygon fill="black" stroke="black" points="135.71,-96.85 146.25,-95.72 137.31,-90.03 135.71,-96.85"/>
</g>
<!-- data 10.0000 -->
<g id="node9" class="node">
<title>data 10.0000</title>
<polygon fill="none" stroke="black" points="234.98,-28.5 234.98,-64.5 345.51,-64.5 345.51,-28.5 234.98,-28.5"/>
<text text-anchor="middle" x="246.09" y="-42.4" font-family="Times,serif" font-size="14.00">c</text>
<polyline fill="none" stroke="black" points="257.19,-28.7 257.19,-64.5 "/>
<text text-anchor="middle" x="301.35" y="-42.4" font-family="Times,serif" font-size="14.00">data 10.0000</text>
</g>
<!-- data 10.0000&#45;&gt;d+ -->
<g id="edge8" class="edge">
<title>data 10.0000&#45;&gt;d+</title>
<path fill="none" stroke="black" d="M345.64,-59.13C354.88,-61.28 364.25,-63.45 372.81,-65.44"/>
<polygon fill="black" stroke="black" points="372.25,-68.9 382.78,-67.76 373.83,-62.08 372.25,-68.9"/>
</g>
<!-- data &#45;2.0000 -->
<g id="node10" class="node">
<title>data &#45;2.0000</title>
<polygon fill="none" stroke="black" points="471.51,-0.5 471.51,-36.5 578.16,-36.5 578.16,-0.5 471.51,-0.5"/>
<text text-anchor="middle" x="481.85" y="-14.4" font-family="Times,serif" font-size="14.00">f</text>
<polyline fill="none" stroke="black" points="492.18,-0.7 492.18,-36.5 "/>
<text text-anchor="middle" x="535.17" y="-14.4" font-family="Times,serif" font-size="14.00">data &#45;2.0000</text>
</g>
<!-- data &#45;2.0000&#45;&gt;L* -->
<g id="edge9" class="edge">
<title>data &#45;2.0000&#45;&gt;L*</title>
<path fill="none" stroke="black" d="M578.31,-30.89C587.49,-33.06 596.83,-35.27 605.38,-37.29"/>
<polygon fill="black" stroke="black" points="604.82,-40.75 615.35,-39.64 606.43,-33.94 604.82,-40.75"/>
</g>
</g>
</svg>
